<?xml version="1.0" encoding="utf-8"?>
<!-- Generator: Adobe Illustrator 24.1.0, SVG Export Plug-In . SVG Version: 6.00 Build 0)  -->
<svg version="1.1" id="Layer_1" xmlns="http://www.w3.org/2000/svg" xmlns:xlink="http://www.w3.org/1999/xlink" x="0px" y="0px"
	 viewBox="0 0 60.1 70.5" style="enable-background:new 0 0 60.1 70.5;" xml:space="preserve">
<style type="text/css">
	.st0{fill:#14A7E0;}
	.st1{fill:#FFFFFF;}
</style>
<circle class="st0" cx="30.1" cy="26" r="26"/>
<path class="st0" d="M21.2,70.5c-2.3,0.1-4.2-1.6-4.3-3.9c-0.1-2.3,1.6-4.2,3.9-4.3c0.1,0,0.3,0,0.4,0c1.1,0,2.2,0.3,3,1L23,64.7
	c-0.9-0.9-2.4-0.9-3.3,0c-0.5,0.5-0.7,1.1-0.7,1.7c-0.1,1.2,0.8,2.3,2,2.4c0.1,0,0.2,0,0.3,0c0.4,0,0.8-0.1,1.2-0.2v-1.4H21v-1.5
	h3.2v4.1C23.3,70.3,22.3,70.5,21.2,70.5z"/>
<path class="st0" d="M25.8,70.3v-7.8h1.9v7.8H25.8z"/>
<path class="st0" d="M33.1,70.3h-1.9l-3-7.8h2.1l1.8,5.5l0,0l1.9-5.5h2.1L33.1,70.3z"/>
<path class="st0" d="M36.8,70.3v-7.8H42v1.6h-3.4v1.5h3.2v1.5h-3.2v1.6h3.6v1.6H36.8z"/>
<path class="st1" d="M43,24.4c-0.1-0.3-0.4-0.4-0.7-0.5c-3.1-0.1-6,1.3-8,3.7c-0.6-1.3-2-2.2-3.5-2.2h-4.4c-1.1,0-2.2,0.2-3.1,0.8
	c-2.4,1.4-4.5,3.3-6.1,5.7c-0.2,0.3-0.2,0.7,0.1,1l4.6,4.6c0.1,0.1,0.3,0.2,0.5,0.2l0,0c0.2,0,0.4-0.1,0.5-0.3
	c2.4-2.9,4.5-3.6,12.5-4.3c0.2,0,0.4-0.1,0.5-0.2l6.8-7.6C43,25.1,43.1,24.7,43,24.4L43,24.4z M35.1,31.6
	c-7.3,0.6-10.1,1.3-12.7,4.2l-3.5-3.5c1.4-1.9,3.2-3.5,5.3-4.7c0.7-0.4,1.5-0.6,2.4-0.6h4.5c1,0,1.9,0.6,2.2,1.6h-6.8
	c-0.4,0-0.8,0.3-0.8,0.8c0,0.4,0.3,0.8,0.8,0.8h7.6c0.2,0,0.4-0.1,0.5-0.2l0,0l0,0v0c1.5-1.9,3.2-3.6,5.9-4.1L35.1,31.6z"/>
<path class="st1" d="M32.6,22.3l1.6,1.2c0.3,0.3,0.7,0.3,1,0l1.6-1.2c1.2-0.9,2.3-1.8,3.3-2.9c0.9-0.8,1.4-2,1.4-3.2
	c0-1-0.4-2-1.1-2.7c-0.7-0.7-1.7-1.1-2.8-1.1c-1.2,0-2.3,0.6-3,1.5v0.1V14c-0.7-1-1.8-1.5-3-1.5c-1,0-2,0.4-2.7,1.1
	c-0.7,0.7-1.1,1.7-1.1,2.7c0,1.2,0.6,2.3,1.4,3.2c1,1,2.2,2,3.4,2.9L32.6,22.3z M31.6,14c1.1,0.1,2,0.8,2.3,1.9
	c0.1,0.3,0.4,0.5,0.7,0.5c0.3,0,0.6-0.2,0.7-0.5c0.3-1,1.2-1.8,2.3-1.9c1.2,0,2.3,0.9,2.3,2.2c0,0,0,0.1,0,0.1
	c0,1.6-1.7,2.9-4.2,4.9L34.6,22l-1.1-0.9c-2.5-2-4.2-3.3-4.2-4.9c0-1.2,0.9-2.3,2.2-2.3C31.5,14,31.6,14,31.6,14L31.6,14z"/>
</svg>
