<svg version="1.1" id="Layer_1" xmlns="http://www.w3.org/2000/svg" x="0" y="0" viewBox="0 0 60.1 70.5" xml:space="preserve">
  <style>
    .st0{fill:#14a7e0}.st1{fill:#fff}
  </style>
  <circle class="st0" cx="30.1" cy="26" r="26"/>
  <path class="st0" d="M21.2 70.5c-2.3.1-4.2-1.6-4.3-3.9-.1-2.3 1.6-4.2 3.9-4.3h.4c1.1 0 2.2.3 3 1L23 64.7c-.9-.9-2.4-.9-3.3 0-.5.5-.7 1.1-.7 1.7-.1 1.2.8 2.3 2 2.4h.3c.4 0 .8-.1 1.2-.2v-1.4H21v-1.5h3.2v4.1c-.9.5-1.9.7-3 .7zM25.8 70.3v-7.8h1.9v7.8h-1.9zM33.1 70.3h-1.9l-3-7.8h2.1l1.8 5.5 1.9-5.5h2.1l-3 7.8zM36.8 70.3v-7.8H42v1.6h-3.4v1.5h3.2v1.5h-3.2v1.6h3.6v1.6h-5.4z"/>
  <path class="st1" d="M43 24.4c-.1-.3-.4-.4-.7-.5-3.1-.1-6 1.3-8 3.7-.6-1.3-2-2.2-3.5-2.2h-4.4c-1.1 0-2.2.2-3.1.8-2.4 1.4-4.5 3.3-6.1 5.7-.2.3-.2.7.1 1l4.6 4.6c.1.1.3.2.5.2s.4-.1.5-.3c2.4-2.9 4.5-3.6 12.5-4.3.2 0 .4-.1.5-.2l6.8-7.6c.3-.2.4-.6.3-.9zm-7.9 7.2c-7.3.6-10.1 1.3-12.7 4.2l-3.5-3.5c1.4-1.9 3.2-3.5 5.3-4.7.7-.4 1.5-.6 2.4-.6h4.5c1 0 1.9.6 2.2 1.6h-6.8c-.4 0-.8.3-.8.8 0 .4.3.8.8.8h7.6c.2 0 .4-.1.5-.2 1.5-1.9 3.2-3.6 5.9-4.1l-5.4 5.7zM32.6 22.3l1.6 1.2c.3.3.7.3 1 0l1.6-1.2c1.2-.9 2.3-1.8 3.3-2.9.9-.8 1.4-2 1.4-3.2 0-1-.4-2-1.1-2.7-.7-.7-1.7-1.1-2.8-1.1-1.2 0-2.3.6-3 1.5v.1c-.7-1-1.8-1.5-3-1.5-1 0-2 .4-2.7 1.1-.7.7-1.1 1.7-1.1 2.7 0 1.2.6 2.3 1.4 3.2 1 1 2.2 2 3.4 2.9v-.1zm-1-8.3c1.1.1 2 .8 2.3 1.9.1.3.4.5.7.5.3 0 .6-.2.7-.5.3-1 1.2-1.8 2.3-1.9 1.2 0 2.3.9 2.3 2.2v.1c0 1.6-1.7 2.9-4.2 4.9l-1.1.8-1.1-.9c-2.5-2-4.2-3.3-4.2-4.9 0-1.2.9-2.3 2.2-2.3 0 .1.1.1.1.1z"/>
</svg>
