<svg version="1.1" id="Layer_1" xmlns="http://www.w3.org/2000/svg" x="0" y="0" viewBox="0 0 60.1 70.5" xml:space="preserve">
  <style>
    .st0{fill:#14a7e0}.st1{fill:#fff}
  </style>
  <circle class="st0" cx="30.1" cy="26" r="26"/>
  <path class="st0" d="M16.1 64.6c-.3-.4-.9-.7-1.4-.7-.5 0-1.1.2-1.1.8s.5.7 1.2.9c1.1.3 2.4.8 2.4 2.3 0 1.8-1.5 2.6-3 2.6-1.1 0-2.1-.4-2.9-1.1l1.2-1.2c.4.5 1 .8 1.7.8.6 0 1.1-.2 1.1-.8s-.6-.8-1.6-1.1-2-.8-2-2.2c0-1.7 1.6-2.4 3-2.4.9 0 1.9.4 2.5 1l-1.1 1.1zM23.3 70.3V67h-3v3.3h-1.9v-7.8h1.9v3h3v-3h1.9v7.8h-1.9zM32.1 70.3l-.6-1.5h-3l-.6 1.5h-2l3.3-7.8H31l3.2 7.8h-2.1zm-2-5.7l-1 2.7h2l-1-2.7zM39.1 70.3l-1.7-3.1h-.6v3.1h-1.9v-7.8h3c1.5 0 3 .6 3 2.3 0 1-.7 1.9-1.7 2.1l2 3.3-2.1.1zm-1.4-6.2h-1v1.8h.9c.6 0 1.4-.2 1.4-.9s-.7-.9-1.3-.9zM42.1 70.3v-7.8h5.2v1.6H44v1.5h3.2v1.5H44v1.6h3.6v1.6h-5.5z"/>
  <path class="st1" d="M39.4 35.8H21.7c-1.5 0-2.6-1.2-2.6-2.6v-14c0-1.5 1.2-2.6 2.6-2.6h3.4c.4-.1.8.2.9.6s-.2.8-.6.9H21.7c-.7 0-1.2.5-1.2 1.2v13.9c0 .7.5 1.2 1.2 1.2h17.7c.7 0 1.2-.5 1.2-1.2V25c0-.4.3-.7.7-.7.4 0 .7.3.7.7v8.2c.1 1.4-1.1 2.6-2.6 2.6z"/>
  <path class="st1" d="M25.5 28.1h-.2c-.3-.1-.6-.3-.6-.7v-1.5c0-5.2 4.2-9.4 9.4-9.4h.2v-3.1c0-.3.2-.6.5-.7.3-.1.6 0 .8.2l6.2 6.5c.3.3.3.7 0 1l-6.2 6.5c-.2.2-.5.3-.8.2-.3-.1-.4-.4-.5-.7v-3.1h-1.1c-3 0-5.7 1.7-7.1 4.4 0 .2-.3.4-.6.4zm8.7-10c-4 0-7.3 3-7.9 6.9 1.8-2 4.3-3.1 7-3.1h1.9c.4 0 .7.3.7.7v2l4.5-4.7-4.5-4.7v2c0 .4-.3.7-.7.7l-1 .2z"/>
</svg>
