<?xml version="1.0" encoding="utf-8"?>
<!-- Generator: Adobe Illustrator 24.1.0, SVG Export Plug-In . SVG Version: 6.00 Build 0)  -->
<svg version="1.1" id="Layer_1" xmlns="http://www.w3.org/2000/svg" xmlns:xlink="http://www.w3.org/1999/xlink" x="0px" y="0px"
	 viewBox="0 0 60.1 70.5" style="enable-background:new 0 0 60.1 70.5;" xml:space="preserve">
<style type="text/css">
	.st0{fill:#14A7E0;}
	.st1{fill:#FFFFFF;}
</style>
<circle class="st0" cx="30.1" cy="26" r="26"/>
<path class="st0" d="M16.1,64.6c-0.3-0.4-0.9-0.7-1.4-0.7c-0.5,0-1.1,0.2-1.1,0.8s0.5,0.7,1.2,0.9c1.1,0.3,2.4,0.8,2.4,2.3
	c0,1.8-1.5,2.6-3,2.6c-1.1,0-2.1-0.4-2.9-1.1l1.2-1.2c0.4,0.5,1,0.8,1.7,0.8c0.6,0,1.1-0.2,1.1-0.8s-0.6-0.8-1.6-1.1s-2-0.8-2-2.2
	c0-1.7,1.6-2.4,3-2.4c0.9,0,1.9,0.4,2.5,1L16.1,64.6z"/>
<path class="st0" d="M23.3,70.3v-3.3h-3v3.3h-1.9v-7.8h1.9v3h3v-3h1.9v7.8H23.3z"/>
<path class="st0" d="M32.1,70.3l-0.6-1.5h-3l-0.6,1.5h-2l3.3-7.8H31l3.2,7.8H32.1z M30.1,64.6l-1,2.7h2L30.1,64.6z"/>
<path class="st0" d="M39.1,70.3l-1.7-3.1h-0.6v3.1h-1.9v-7.8h3c1.5,0,3,0.6,3,2.3c0,1-0.7,1.9-1.7,2.1l2,3.3L39.1,70.3z M37.7,64.1
	h-1v1.8h0.9c0.6,0,1.4-0.2,1.4-0.9S38.3,64.1,37.7,64.1L37.7,64.1z"/>
<path class="st0" d="M42.1,70.3v-7.8h5.2v1.6H44v1.5h3.2v1.5H44v1.6h3.6v1.6H42.1z"/>
<path class="st1" d="M39.4,35.8H21.7c-1.5,0-2.6-1.2-2.6-2.6V19.2c0-1.5,1.2-2.6,2.6-2.6h3.4c0.4-0.1,0.8,0.2,0.9,0.6
	s-0.2,0.8-0.6,0.9c-0.1,0-0.2,0-0.3,0h-3.4c-0.7,0-1.2,0.5-1.2,1.2v0v13.9c0,0.7,0.5,1.2,1.2,1.2h0h17.7c0.7,0,1.2-0.5,1.2-1.2l0,0
	V25c0-0.4,0.3-0.7,0.7-0.7c0.4,0,0.7,0.3,0.7,0.7v8.2C42.1,34.6,40.9,35.8,39.4,35.8z"/>
<path class="st1" d="M25.5,28.1c-0.1,0-0.1,0-0.2,0c-0.3-0.1-0.6-0.3-0.6-0.7v-1.5c0-5.2,4.2-9.4,9.4-9.4h0.2v-3.1
	c0-0.3,0.2-0.6,0.5-0.7c0.3-0.1,0.6,0,0.8,0.2l6.2,6.5c0.3,0.3,0.3,0.7,0,1l-6.2,6.5c-0.2,0.2-0.5,0.3-0.8,0.2
	c-0.3-0.1-0.4-0.4-0.5-0.7v-3.1h-1.1c-3,0-5.7,1.7-7.1,4.4C26.1,27.9,25.8,28.1,25.5,28.1z M34.2,18.1c-4,0-7.3,3-7.9,6.9
	c1.8-2,4.3-3.1,7-3.1h1.9c0.4,0,0.7,0.3,0.7,0.7v2l4.5-4.7l-4.5-4.7v2c0,0.4-0.3,0.7-0.7,0.7l0,0L34.2,18.1z"/>
</svg>
