<?xml version="1.0" encoding="utf-8"?>
<!-- Generator: Adobe Illustrator 24.1.0, SVG Export Plug-In . SVG Version: 6.00 Build 0)  -->
<svg version="1.1" id="Layer_1" xmlns="http://www.w3.org/2000/svg" xmlns:xlink="http://www.w3.org/1999/xlink" x="0px" y="0px"
	 viewBox="0 0 60.3 70.5" style="enable-background:new 0 0 60.3 70.5;" xml:space="preserve">
<style type="text/css">
	.st0{fill:#14A7E0;}
	.st1{fill:#FFFFFF;}
</style>
<circle class="st0" cx="30.1" cy="26" r="26"/>
<path class="st0" d="M4.8,64.6c-0.3-0.4-0.8-0.7-1.4-0.7c-0.5,0-1.1,0.2-1.1,0.8s0.5,0.7,1.2,0.9c1,0.3,2.4,0.8,2.4,2.3
	c0,1.8-1.4,2.6-3,2.6c-1.1,0-2.1-0.4-2.9-1.1l1.2-1.2c0.4,0.5,1,0.8,1.7,0.9C3.5,69,4,68.8,4,68.2S3.4,67.3,2.4,67s-2-0.8-2-2.2
	c0-1.7,1.6-2.4,3-2.4c0.9,0,1.9,0.4,2.5,1L4.8,64.6z"/>
<path class="st0" d="M10.4,70.5c-1.6,0.2-3.1-1-3.3-2.7c0-0.2,0-0.3,0-0.5v-4.8h1.9v4.7c-0.1,0.8,0.5,1.5,1.3,1.6
	c0.8,0.1,1.5-0.5,1.6-1.3c0-0.1,0-0.2,0-0.2v-4.7h1.9v4.8c0,1.7-1.3,3.1-3,3.2C10.6,70.5,10.5,70.5,10.4,70.5z"/>
<path class="st0" d="M18.4,70.3h-3.1v-7.8h3.1c1.2,0,2.6,0.4,2.6,2c0,0.8-0.5,1.5-1.2,1.7l0,0c0.9,0.1,1.6,0.9,1.6,1.8
	C21.3,69.7,19.8,70.3,18.4,70.3z M18,64h-0.9v1.6h1c0.7,0,1.1-0.3,1.1-0.8S18.8,64,18,64z M18.1,67h-1v1.8h1.1
	c0.6,0,1.3-0.2,1.3-0.9S18.9,67,18.1,67z"/>
<path class="st0" d="M26.7,64.6c-0.3-0.4-0.8-0.7-1.4-0.7c-0.5,0-1.1,0.2-1.1,0.8s0.5,0.7,1.2,0.9c1,0.3,2.4,0.8,2.4,2.3
	c0,1.8-1.4,2.6-3,2.6c-1.1,0-2.1-0.4-2.9-1.1l1.2-1.2c0.4,0.5,1,0.8,1.7,0.8c0.6,0,1.1-0.2,1.1-0.8s-0.6-0.8-1.6-1.1s-2-0.8-2-2.2
	c0-1.7,1.6-2.4,3-2.4c0.9,0,1.9,0.4,2.5,1L26.7,64.6z"/>
<path class="st0" d="M32.9,70.5c-2.3-0.1-4.1-1.9-4-4.2c0.1-2.3,1.9-4.1,4.2-4c1,0,2,0.4,2.8,1.1l-1.3,1.3c-0.4-0.5-1-0.8-1.6-0.7
	c-1.2,0-2.2,1-2.2,2.3c0,0,0,0.1,0,0.1c-0.1,1.2,0.8,2.3,2,2.4c0.1,0,0.1,0,0.2,0c0.6,0,1.3-0.3,1.6-0.8l1.3,1.2
	C35.2,70.1,34.1,70.6,32.9,70.5z"/>
<path class="st0" d="M40.9,70.3l-1.7-3.1h-0.6v3.1h-1.8v-7.8h3c1.5,0,3,0.6,3,2.3c0,1-0.7,1.9-1.7,2.1l2,3.3L40.9,70.3z M39.6,64.1
	h-1v1.8h0.9c0.6,0,1.4-0.2,1.4-0.9S40.1,64.1,39.6,64.1z"/>
<path class="st0" d="M44,70.3v-7.8h1.9v7.8H44z"/>
<path class="st0" d="M50.6,70.3h-3.1v-7.8h3.1c1.2,0,2.7,0.4,2.7,2c0,0.8-0.5,1.5-1.3,1.7l0,0c0.9,0.1,1.6,0.9,1.6,1.8
	C53.6,69.7,52.1,70.3,50.6,70.3z M50.3,64h-0.9v1.6h1c0.7,0,1.1-0.3,1.1-0.8S51,64,50.3,64z M50.4,67h-1v1.8h1.1
	c0.6,0,1.3-0.2,1.3-0.9S51.2,67,50.4,67z"/>
<path class="st0" d="M54.8,70.3v-7.8h5.2v1.6h-3.4v1.5h3.2v1.5h-3.2v1.6h3.6v1.6H54.8z"/>
<path class="st1" d="M28.8,38c-2.2,0-4-1.8-4-4c0-0.4,0.4-0.8,0.8-0.8c0.4,0,0.8,0.4,0.8,0.8c0,1.3,1.1,2.4,2.4,2.4
	c1.3,0,2.4-1.1,2.4-2.4c0-0.4,0.5-0.8,0.9-0.7c0.4,0,0.7,0.3,0.7,0.7C32.8,36.2,31,38,28.8,38C28.8,38,28.8,38,28.8,38z"/>
<path class="st1" d="M37.6,34.8H20c-1,0-1.9-0.8-1.9-1.9c0-0.5,0.2-1.1,0.7-1.4l0.1-0.1c1.6-1.4,2.5-3.4,2.5-5.4v-3
	c0-3.5,2.4-6.5,5.7-7.3c0.4-0.1,0.9,0.2,1,0.6c0.1,0.4-0.2,0.9-0.6,1l0,0c-2.6,0.6-4.5,3-4.5,5.7v3c0,2.6-1.1,5-3.1,6.7l0,0
	c0,0-0.1,0.1-0.1,0.2c0,0.1,0.1,0.3,0.3,0.3l0,0h17.6c0.2,0,0.3-0.1,0.3-0.3c0-0.1,0-0.1-0.1-0.1l0,0c-1-0.8-1.7-1.8-2.3-2.9
	c-0.2-0.4-0.1-0.9,0.3-1.1c0.4-0.2,0.9-0.1,1.1,0.3c0,0,0,0.1,0.1,0.1c0.4,0.9,1,1.7,1.8,2.3l0.1,0.1c0.8,0.7,0.9,1.9,0.2,2.6
	C38.7,34.6,38.2,34.8,37.6,34.8z"/>
<path class="st1" d="M36.8,26.3c-3.8,0-6.9-3.1-6.9-6.9s3.1-6.9,6.9-6.9c3.8,0,6.9,3.1,6.9,6.9c0,0,0,0,0,0
	C43.7,23.1,40.6,26.3,36.8,26.3z M36.8,14c-2.9,0-5.3,2.4-5.4,5.3c0,2.9,2.4,5.3,5.3,5.4c2.9,0,5.3-2.4,5.4-5.3c0,0,0,0,0,0
	C42.1,16.4,39.7,14,36.8,14L36.8,14z"/>
<path class="st1" d="M39.7,20.1h-5.9c-0.4,0-0.8-0.4-0.8-0.8c0-0.4,0.4-0.8,0.8-0.8h5.9c0.4,0,0.8,0.4,0.8,0.8
	C40.5,19.8,40.2,20.1,39.7,20.1z"/>
<path class="st1" d="M36.8,23.1c-0.4,0-0.8-0.4-0.8-0.8v-5.9c0-0.4,0.4-0.8,0.8-0.8c0.4,0,0.8,0.4,0.8,0.8v5.9
	C37.6,22.7,37.3,23.1,36.8,23.1L36.8,23.1z"/>
</svg>
